<svg width="52" height="24" viewBox="0 0 52 24" fill="none" xmlns="http://www.w3.org/2000/svg">
<path d="M51.6592 0V3.91504H45.3613V16.1699H40.9365V3.91504H9.10645C8.0568 3.8583 5.77042 4.20467 5.02148 6.04297H28.5957C30.5532 6.26992 34.4678 7.77873 34.4678 12C34.4678 16.2213 30.5532 17.9574 28.5957 18.2979H21.6172V24H17.3613V10.1279H4.42578V16.2549H0V7.83008C0.113475 5.22015 2.09368 0 9.10645 0H51.6592ZM21.6172 14.2129H28.5957C29.1914 13.9859 30.3828 13.2255 30.3828 12C30.3828 10.7745 29.1914 10.2414 28.5957 10.1279H21.6172V14.2129Z" fill="#0F4C30"/>
</svg>
